<?xml version="1.0" standalone="no"?>
<!DOCTYPE svg PUBLIC "-//W3C//DTD SVG 20010904//EN"
 "http://www.w3.org/TR/2001/REC-SVG-20010904/DTD/svg10.dtd">
<svg version="1.0" xmlns="http://www.w3.org/2000/svg"
 width="700.000000pt" height="700.000000pt" viewBox="0 0 700.000000 700.000000"
 preserveAspectRatio="xMidYMid meet">
<metadata>
Created by potrace 1.14, written by Peter Selinger 2001-2017
</metadata>
<g transform="translate(0.000000,700.000000) scale(0.100000,-0.100000)"
fill="#000000" stroke="none">
<path d="M3305 6944 c-820 -54 -1573 -375 -2150 -915 -614 -575 -980 -1299
-1081 -2139 -24 -199 -24 -581 0 -780 101 -843 463 -1557 1084 -2142 458 -431
1065 -736 1702 -857 398 -75 884 -75 1280 0 1400 267 2484 1352 2749 2749 58
306 73 732 37 1030 -194 1611 -1430 2849 -3031 3035 -130 15 -477 26 -590 19z
m-1154 -1478 c107 -25 194 -94 246 -196 l28 -55 3 -1847 2 -1848 -360 0 -360
0 0 1813 c0 2015 -5 1880 68 1987 45 66 126 124 202 144 70 19 101 19 171 2z
m1482 -16 c78 -29 149 -96 189 -178 l33 -67 2 -1255 c2 -986 0 -1260 -10
-1279 -6 -13 -25 -34 -40 -45 -27 -20 -40 -21 -307 -21 -267 0 -280 1 -307 21
-15 11 -34 32 -40 45 -10 19 -12 294 -10 1279 l2 1255 26 56 c85 181 275 259
462 189z m1417 5 c65 -23 135 -77 175 -138 69 -105 65 25 65 -1984 l0 -1813
-360 0 -360 0 2 1848 3 1847 28 55 c87 170 271 246 447 185z"/>
</g>
</svg>
