<?xml version="1.0" standalone="no"?>
<!DOCTYPE svg PUBLIC "-//W3C//DTD SVG 20010904//EN"
 "http://www.w3.org/TR/2001/REC-SVG-20010904/DTD/svg10.dtd">
<svg version="1.0" xmlns="http://www.w3.org/2000/svg"
 width="260.000000pt" height="260.000000pt" viewBox="0 0 260.000000 260.000000"
 preserveAspectRatio="xMidYMid meet">
<metadata>
Created by potrace 1.14, written by Peter Selinger 2001-2017
</metadata>
<g transform="translate(0.000000,260.000000) scale(0.100000,-0.100000)"
fill="#000000" stroke="none">
<path d="M1126 2490 c-268 -42 -503 -165 -692 -362 -99 -103 -152 -180 -215
-312 -91 -191 -126 -364 -116 -576 14 -312 140 -586 369 -806 103 -99 180
-152 312 -215 192 -91 365 -126 576 -116 117 6 154 12 254 38 l39 11 -6 116
c-10 186 -49 374 -152 739 -130 459 -163 619 -172 828 -6 153 9 262 49 360 33
78 104 180 160 229 l50 44 -53 12 c-69 16 -326 22 -403 10z"/>
<path d="M1623 2386 c-146 -110 -214 -269 -214 -501 0 -220 24 -336 195 -948
70 -250 113 -458 126 -617 6 -69 12 -128 13 -132 2 -7 153 64 168 79 11 11
-16 213 -47 353 -15 63 -51 203 -80 310 -166 595 -200 772 -191 998 7 191 47
310 144 430 20 24 34 44 32 46 -14 8 -62 26 -73 26 -8 0 -40 -20 -73 -44z"/>
<path d="M1813 2313 c-81 -99 -115 -184 -134 -333 -20 -167 16 -404 117 -765
133 -481 176 -658 199 -837 3 -27 10 -48 14 -48 4 0 37 28 73 63 l67 62 -25
109 c-14 61 -50 198 -80 305 -166 596 -200 772 -192 999 6 157 31 254 93 355
19 32 33 63 29 68 -6 10 -105 69 -116 69 -3 0 -24 -21 -45 -47z"/>
<path d="M2023 2188 c-71 -113 -102 -289 -84 -476 18 -181 46 -306 161 -717
33 -116 73 -266 89 -334 17 -68 32 -125 33 -127 10 -9 98 129 148 231 101 205
137 373 127 595 -11 228 -77 426 -211 625 -40 61 -212 245 -227 245 -5 0 -21
-19 -36 -42z"/>
</g>
</svg>
